PathFileType	4	(X/Y/Z)	C:/Users/opensim2020/Desktop/walking_exp_matlab/subject02_walking13_straight_02.trc	
DataRate	CameraRate	NumFrames	NumMarkers	Units	OrigDataRate	OrigDataStartFrame	OrigNumFrames	
100.00	100.00	6	41	mm	100.00	881	125	
Frame#	Time	LFHD			RFHD			LBHD			RBHD			C7			T10			CLAV			STRN			RBAK			LSHO			LUPA			LELB			LFRM			LWRA			LWRB			LFIN			RSHO			RUPA			RELB			RFRM			RWRA			RWRB			RFIN			LASI			RASI			LPSI			RPSI			LTHI			LKNE			LTIB			LANK			LHEE			LTOE			RTHI			RKNE			RTIB			RANK			RHEE			RTOE			*39			*40			
		X1	Y1	Z1	X2	Y2	Z2	X3	Y3	Z3	X4	Y4	Z4	X5	Y5	Z5	X6	Y6	Z6	X7	Y7	Z7	X8	Y8	Z8	X9	Y9	Z9	X10	Y10	Z10	X11	Y11	Z11	X12	Y12	Z12	X13	Y13	Z13	X14	Y14	Z14	X15	Y15	Z15	X16	Y16	Z16	X17	Y17	Z17	X18	Y18	Z18	X19	Y19	Z19	X20	Y20	Z20	X21	Y21	Z21	X22	Y22	Z22	X23	Y23	Z23	X24	Y24	Z24	X25	Y25	Z25	X26	Y26	Z26	X27	Y27	Z27	X28	Y28	Z28	X29	Y29	Z29	X30	Y30	Z30	X31	Y31	Z31	X32	Y32	Z32	X33	Y33	Z33	X34	Y34	Z34	X35	Y35	Z35	X36	Y36	Z36	X37	Y37	Z37	X38	Y38	Z38	X39	Y39	Z39	X40	Y40	Z40	X41	Y41	Z41	

16	0.150	1443.57141	754.41779	1717.77368	1302.90308	773.49738	1690.90662	1471.60730	889.12115	1656.52246	1333.78406	920.26080	1630.05078	1403.61365	964.51575	1512.46033	1392.05066	1023.68195	1236.79724	1417.83484	828.18127	1438.43164	1416.91614	781.75116	1265.73547	1341.72961	1027.80737	1335.83704	1580.70923	901.64655	1491.52234	1702.37085	876.62616	1319.56238	1758.51135	827.31427	1199.14221	1801.34204	744.46881	1102.08069	1803.39404	621.97083	1038.35242	1829.52441	665.26526	1013.01398	1853.31787	612.51459	982.21631	1220.16357	889.74957	1469.86560	1134.44055	948.10846	1289.93958	1112.16882	954.43982	1141.89880	1107.31409	933.91089	1020.42676	1148.59814	902.24078	892.89526	1103.76611	939.40619	890.47076	1118.90991	911.46692	823.16156	1557.03076	842.45459	968.64880	1305.89905	798.40594	952.18811	1438.57434	1030.28503	1025.22668	1326.38782	1016.71484	1019.65497	1591.95178	982.31940	671.91229	1554.52075	1057.39380	481.31711	1544.55688	1159.85034	314.53412	1508.75928	1204.04382	92.82738	1453.41077	1236.98560	70.73018	1543.92053	1057.68372	37.52966	1235.41211	803.12421	654.12976	1302.80615	727.64801	467.49353	1314.40417	693.55994	284.66702	1363.01697	623.12506	106.09428	1429.07031	620.97021	50.01331	1331.22302	466.39630	115.40731	1360.95764	860.06219	1787.35840	-3360.39551	2845.22485	1034.29578 
17	0.160	1444.65637	741.10590	1715.27576	1304.55615	760.50946	1688.98206	1472.93713	875.69501	1654.08057	1335.44775	907.33453	1627.76392	1405.25317	951.47754	1510.18909	1393.27161	1010.65466	1234.53394	1419.33191	815.11780	1436.20276	1417.86243	768.75067	1263.38293	1343.46619	1014.90234	1333.66113	1582.08923	888.16034	1489.20972	1704.51855	861.81848	1318.73840	1761.16077	811.56030	1198.80139	1804.17676	725.78961	1104.28247	1806.69080	601.17145	1045.04016	1832.32166	643.78998	1017.80737	1856.97278	590.32434	989.48657	1221.48547	877.29486	1467.78333	1135.87891	937.33148	1288.43628	1113.83398	945.69476	1140.70483	1108.61255	927.21545	1019.07385	1148.81567	896.18561	890.82959	1104.31897	934.25861	889.10016	1119.03784	906.51898	821.38361	1558.28931	829.76172	966.76605	1307.68689	785.23926	949.79333	1439.43469	1017.37396	1022.92773	1327.24072	1003.20953	1017.18817	1593.36902	973.53912	671.12366	1555.54834	1050.59180	481.30588	1545.39294	1155.64734	316.28253	1509.48608	1203.11414	95.19141	1454.08875	1236.30896	73.83958	1544.03186	1057.61267	37.34431	1238.09875	794.18848	650.51862	1306.30103	715.83319	464.96371	1316.46313	675.93951	283.85837	1364.29663	599.54041	107.03200	1429.95020	596.03534	50.70557	1333.21228	442.40820	120.36097	1362.58313	847.04974	1784.97571	-3356.90771	2845.99683	1034.24451 
18	0.170	1446.06311	727.92010	1713.20593	1305.71545	747.62219	1686.80188	1474.59692	862.35883	1651.91248	1336.91943	894.22266	1625.61328	1406.71704	938.39258	1508.05493	1394.52319	997.52795	1232.36804	1420.28735	801.91156	1433.89587	1418.59277	755.66962	1261.19116	1345.02588	1001.78589	1331.55481	1583.14490	874.53687	1486.94897	1706.21375	847.06238	1317.64709	1763.53760	796.08466	1198.27087	1806.62500	707.52386	1106.15784	1809.53064	581.21265	1051.35999	1834.52087	622.82147	1022.38788	1859.81006	568.76501	996.34216	1222.48828	864.59668	1465.58008	1137.83459	927.08496	1287.12305	1114.93347	936.98114	1139.59119	1109.51001	919.11890	1017.61987	1149.06091	889.69354	888.83484	1104.63806	927.94171	887.71997	1119.05872	900.92126	819.69232	1559.55884	816.90503	964.81219	1309.30225	771.74091	947.40277	1440.35559	1004.30957	1020.77936	1328.18579	990.08557	1015.01813	1594.62732	964.16827	670.34888	1557.07715	1043.08484	481.67850	1546.44043	1150.77869	318.16119	1510.49512	1202.00439	98.00730	1454.85522	1235.38208	77.46915	1544.30750	1057.57886	37.38552	1240.94812	783.58160	647.64575	1309.32275	702.90472	463.35803	1317.99109	658.72107	283.15860	1365.58521	579.73993	107.24442	1430.98022	576.13873	50.59296	1336.51611	421.82468	122.46078	1364.14526	833.98248	1782.89026	-3356.98853	2846.05420	1034.15918 
19	0.180	1447.14368	714.51331	1711.21399	1306.59998	734.42969	1684.81201	1475.73364	848.80115	1649.76843	1338.26990	881.02014	1623.73364	1407.92676	925.21350	1506.11560	1395.63037	984.21112	1230.33887	1421.08069	788.67279	1431.84814	1419.20728	742.44336	1259.17236	1346.55212	988.78113	1329.50623	1583.88293	860.86328	1484.69067	1707.46179	832.59363	1316.55444	1765.65784	780.88092	1197.55212	1808.61670	689.79456	1107.86365	1811.86536	562.18134	1057.23035	1836.22144	602.66058	1026.60083	1862.04651	547.98749	1002.65735	1223.34448	851.99512	1463.63159	1139.03796	916.08667	1285.63977	1116.24133	927.71271	1138.37830	1110.14587	910.84100	1016.14600	1148.89600	881.92651	887.00684	1105.39355	921.71649	886.52606	1118.88770	894.98645	818.29462	1561.07434	803.93848	962.97668	1311.17090	758.06152	945.15796	1441.21558	991.07019	1018.84418	1329.01770	976.38104	1013.03284	1596.18884	954.20270	669.82166	1558.72522	1034.33508	481.80746	1547.77527	1144.94434	320.33319	1511.56152	1200.58777	101.27100	1455.93213	1234.39307	81.81340	1544.60083	1057.51099	37.31057	1243.72595	770.96442	645.71948	1310.92114	687.86780	462.55951	1319.18445	642.14575	282.63376	1366.96289	563.95428	106.30428	1431.82959	561.68445	49.11572	1341.69238	405.45416	122.52821	1365.49194	820.78998	1780.95520	-3357.04956	2845.90796	1034.14709 
20	0.190	1448.09485	700.97516	1709.41687	1307.77026	721.22235	1683.31738	1476.80432	835.23999	1647.92603	1339.44104	867.74731	1622.06604	1408.94971	911.95514	1504.37793	1396.69409	970.85590	1228.49841	1421.69495	775.34460	1430.05334	1419.71216	729.02789	1257.51001	1347.84290	975.62799	1327.54626	1584.81628	847.40356	1482.79321	1708.48376	818.31927	1315.38708	1767.39380	765.97571	1196.80151	1810.30457	672.60382	1109.36694	1813.47424	543.66248	1062.67993	1837.48499	583.18121	1030.39539	1863.67212	528.06512	1008.53564	1224.08740	839.33978	1461.76074	1140.54932	905.06476	1284.24377	1117.55798	917.90411	1137.24658	1110.59473	902.38141	1014.94836	1148.15137	874.94800	885.35919	1105.70154	914.39917	885.37939	1118.50195	888.19196	816.75000	1562.56665	790.61182	961.09790	1312.99988	744.07513	943.20471	1442.07397	977.59558	1017.17230	1329.83240	962.35553	1011.28577	1597.81323	943.64734	669.42200	1560.53650	1024.60205	481.85556	1549.35901	1138.30737	322.69391	1512.84937	1198.86829	104.95902	1457.29321	1233.08057	86.75249	1544.86304	1057.42041	37.27988	1246.21118	756.26276	644.89111	1311.82446	671.08734	462.30878	1320.34082	626.56104	281.97516	1368.56775	551.95990	104.43826	1432.74756	551.47180	46.46464	1347.31982	393.03107	119.16494	1366.64990	807.42090	1779.22888	-3355.43359	2846.64307	1034.35461 
21	0.200	1448.88855	687.14618	1707.92932	1308.56201	707.85016	1681.98987	1477.89014	821.73145	1646.38928	1340.34436	854.38837	1620.69604	1409.59119	898.57281	1502.80566	1397.72510	957.29919	1226.88184	1422.09290	761.94562	1428.54724	1419.89038	715.32648	1255.97058	1348.83655	961.96655	1325.72034	1585.40186	833.89319	1481.03333	1709.13013	804.36792	1314.34888	1768.86719	751.46783	1196.11792	1811.08423	655.80231	1110.44507	1814.52283	525.90338	1067.65979	1838.47351	564.60950	1034.28296	1864.53137	508.81763	1013.83191	1224.76221	826.81689	1460.14880	1141.40796	893.59821	1282.83984	1118.80139	907.75787	1136.05676	1111.37903	893.62823	1013.91895	1147.74878	867.00085	884.14935	1105.76514	906.55328	884.31482	1118.22656	880.95764	815.62555	1564.50085	777.22900	959.49432	1314.80225	729.69574	941.51978	1442.95520	963.67566	1015.67480	1330.67786	948.12396	1009.67725	1599.46863	932.28674	669.00244	1562.47083	1013.99121	481.84015	1551.17346	1130.91223	325.20770	1514.19678	1196.62683	108.98875	1458.68323	1231.26440	92.24739	1545.17334	1057.24292	37.28484	1247.85632	739.51569	644.89679	1313.22778	654.04865	462.68820	1321.66382	612.58423	280.89642	1370.51770	543.11896	101.68976	1434.40356	545.09802	43.31936	1352.31274	383.92798	113.23744	1367.78882	793.88947	1777.75403	-3356.85303	2846.09497	1034.14539 
